<?xml version="1.0" standalone="no"?><!DOCTYPE svg PUBLIC "-//W3C//DTD SVG 1.1//EN" "http://www.w3.org/Graphics/SVG/1.1/DTD/svg11.dtd"><svg t="1783411335774" class="icon" viewBox="0 0 1024 1024" version="1.1" xmlns="http://www.w3.org/2000/svg" p-id="10895" xmlns:xlink="http://www.w3.org/1999/xlink" width="200" height="200"><path d="M768 0H256C114.666667 0 0 114.666667 0 256v512c0 141.333333 114.666667 256 256 256h512c141.333333 0 256-114.666667 256-256V256C1024 114.666667 909.333333 0 768 0z m3.626667 418.453333v12.906667a7.466667 7.466667 0 0 1-5.013334 7.04v246.186667c0.106667 111.04-79.253333 201.493333-176.746666 201.493333-21.12 0-42.026667-4.266667-61.44-12.48-19.306667-8.213333-36.906667-19.946667-52.053334-34.56-32.213333-31.466667-53.333333-72.533333-60.266666-117.013333h-70.933334c-47.146667 0-85.333333-38.186667-85.333333-85.333334V280c0-47.146667 38.186667-85.226667 85.333333-85.333333h186.88a85.44 85.44 0 0 1 85.333334 85.333333v356.586667c-0.106667 47.146667-38.186667 85.333333-85.333334 85.333333h-73.92c15.04 69.013333 69.226667 117.333333 131.733334 117.333333 74.88 0 135.68-69.333333 135.68-154.666666V438.4a7.573333 7.573333 0 0 1-5.013334-7.04v-12.906667c-18.773333-17.6-30.4-52.373333-30.4-90.88 0-38.4 11.626667-73.28 30.4-90.88v-21.973333c0-4.16 3.306667-7.466667 7.466667-7.466667h36.053333c4.16 0 7.466667 3.306667 7.466667 7.466667v21.973333c18.773333 17.6 30.4 52.373333 30.4 90.88s-11.52 73.28-30.293333 90.88z" fill="#d81e06" p-id="10896"></path><path d="M467.413333 490.88h63.786667v-65.173333h-63.893333v-72.746667h-57.173334v72.746667h-63.786666v65.173333h63.786666v72.64h57.28z" fill="#d81e06" p-id="10897"></path></svg>